/* XPM */
static char * stickufcs_xpm[] = {
"17 17 3 1",
" 	c None",
".	c #FCF5E2",
"+	c #C6CFBA",
".................",
".................",
".................",
".................",
".................",
".................",
"......+++++......",
"......+...+......",
"......+...+......",
"......+...+......",
"......+++++......",
".................",
".................",
".................",
".................",
".................",
"................."};
