/* XPM */
static char * stickpr_xpm[] = {
"17 17 3 1",
" 	c None",
".	c #FCF5E2",
"+	c #76886A",
".................",
".................",
".................",
".................",
".................",
".................",
"......+++++......",
"......+++++......",
"......+++++......",
"......+++++......",
"......+++++......",
".................",
".................",
".................",
".................",
".................",
"................."};
